<svg aria-hidden="true" xmlns="http://www.w3.org/2000/svg">
  <defs>
    <symbol id="icon-home" viewBox="0 0 32 32">
      <path d="M32 18.451l-16-12.42-16 12.42v-5.064l16-12.42 16 12.42zM28 18v12h-8v-8h-8v8h-8v-12l12-9z"></path>
    </symbol>
    <symbol id="icon-hour" viewBox="0 0 32 32">
      <path d="M19.765 14.875c0.001-0.001 0.003-0.002 0.004-0.003l0-0c3.218-1.947 5.337-5.428 5.337-9.404 0-0.003 0-0.006 0-0.009v0-2.669h0.848v-2.304h-19.906v2.304h0.848v2.669c0 0.003 0 0.006 0 0.009 0 3.976 2.118 7.457 5.288 9.376l0.049 0.027c0.002 0.001 0.003 0.002 0.004 0.003v0c0.24 0.154 0.397 0.419 0.397 0.721 0 0.004-0 0.007-0 0.011v-0.001 0.788c0 0.003 0 0.007 0 0.010 0 0.302-0.157 0.567-0.393 0.719l-0.003 0.002c-0.002 0.001-0.003 0.003-0.005 0.004l-0 0c-3.218 1.947-5.336 5.427-5.336 9.403 0 0.003 0 0.006 0 0.009v-0 2.669h-0.848v2.304h19.906v-2.304h-0.848v-2.669c0-0.003 0-0.006 0-0.009 0-3.975-2.118-7.456-5.287-9.375l-0.049-0.027c-0.002-0.001-0.004-0.002-0.005-0.004l0 0c-0.24-0.154-0.397-0.419-0.397-0.721 0-0.004 0-0.007 0-0.011v0.001-0.788c-0-0.003-0-0.007-0-0.010 0-0.302 0.157-0.567 0.393-0.719l0.003-0.002zM19.636 24.156c1.228 0.518 2.116 0.892 2.305 2.039l0.15 0.908h-12.181l0.15-0.908c0.189-1.147 1.077-1.521 2.305-2.039 0.923-0.372 1.698-0.759 2.439-1.197l-0.082 0.045 0.024-0.014c0.274-0.171 0.512-0.354 0.729-0.559l-0.002 0.002 0.529-0.496 0.529 0.496c0.215 0.202 0.453 0.386 0.708 0.545l0.019 0.011 0.024 0.014c0.658 0.393 1.433 0.78 2.238 1.109l0.119 0.043zM16 12.696c0.003-0 0.006-0 0.009-0 0.604 0 1.093 0.489 1.093 1.093s-0.489 1.093-1.093 1.093c-0.604 0-1.093-0.489-1.093-1.093v-0c0-0.6 0.484-1.088 1.083-1.093h0.001zM16 18.299c-0.003 0-0.006 0-0.009 0-0.411 0-0.744-0.333-0.744-0.744s0.333-0.744 0.744-0.744c0.411 0 0.744 0.333 0.744 0.744v0c-0 0.407-0.328 0.738-0.734 0.744h-0.001zM16.823 10.249c-0.002 0.002-0.005 0.004-0.007 0.005l-0 0c-0.308 0.194-0.575 0.405-0.816 0.643l0.001-0.001c-0.241-0.237-0.508-0.449-0.796-0.631l-0.020-0.012c-0.003-0.002-0.005-0.003-0.008-0.005l0 0c-2.086-1.255-3.626-3.060-4.165-4.782-0.012-0.038-0.019-0.082-0.019-0.128 0-0.244 0.198-0.441 0.441-0.441 0.001 0 0.001 0 0.002 0h9.129c0.001 0 0.001 0 0.002 0 0.244 0 0.441 0.198 0.441 0.441 0 0.046-0.007 0.090-0.020 0.131l0.001-0.003c-0.539 1.722-2.080 3.527-4.165 4.782z"></path>
    </symbol>
    <symbol id="icon-free-consultation" viewBox="0 0 32 32">
      <path d="M21.117 19.034c-0.733-5.033-5.019-8.855-10.197-8.855-5.688 0-10.299 4.611-10.299 10.299 0 0.511 0.037 1.014 0.109 1.505l-0.007-0.056c0.079 0.555 0.188 1.044 0.33 1.518l-0.019-0.072c0.337 0.976 0.774 1.822 1.312 2.592l-0.022-0.034c0.005 0.082 0.011 0.164 0.011 0.245 0.001 0.032 0.001 0.071 0.001 0.109 0 1.552-0.745 2.93-1.897 3.796l-0.012 0.009c-0.061 0.045-0.1 0.117-0.1 0.198 0 0.123 0.090 0.225 0.208 0.243l0.001 0c0.317 0.048 0.682 0.076 1.054 0.076 1.531 0 2.952-0.469 4.128-1.27l-0.025 0.016c0.047-0.031 0.092-0.062 0.138-0.094l0.038-0.027c1.088 0.661 2.353 1.17 3.7 1.456l0.080 0.014c0.379 0.049 0.818 0.078 1.263 0.078 5.692 0 10.307-4.615 10.307-10.307 0-0.508-0.037-1.007-0.108-1.496l0.007 0.056zM6.11 21.845c-0.753-0-1.364-0.611-1.364-1.365s0.611-1.365 1.365-1.365c0.753 0 1.364 0.611 1.365 1.364v0c0 0 0 0 0 0 0 0.754-0.611 1.365-1.365 1.365-0 0-0 0-0 0v0zM10.95 21.845c-0.753-0-1.364-0.611-1.364-1.365s0.611-1.365 1.365-1.365c0.753 0 1.364 0.611 1.365 1.364v0c0 0 0 0 0 0 0 0.754-0.611 1.365-1.365 1.365-0 0-0 0-0 0v0zM15.788 21.845c-0.753-0-1.364-0.611-1.364-1.365s0.611-1.365 1.365-1.365c0.754 0 1.364 0.611 1.365 1.364v0c0 0 0 0 0 0 0 0.754-0.611 1.365-1.365 1.365-0 0-0 0-0 0v0z"></path>
      <path d="M31.665 21.386c-0.024 0.096-0.103 0.169-0.201 0.184l-0.001 0c-0.317 0.049-0.683 0.076-1.055 0.076-1.53 0-2.951-0.468-4.127-1.27l0.025 0.016c-0.047-0.031-0.092-0.063-0.138-0.095l-0.038-0.027c-1.053 0.64-2.277 1.139-3.579 1.429l-0.081 0.015c0.040-0.365 0.063-0.788 0.063-1.217 0-0.582-0.042-1.154-0.124-1.713l0.008 0.064c-0.818-5.604-5.54-9.875-11.28-9.983l-0.011-0c1.211-4.439 5.207-7.649 9.953-7.649 5.689 0 10.3 4.611 10.3 10.3 0 1.032-0.152 2.028-0.434 2.968l0.019-0.073c-0.337 0.976-0.773 1.822-1.311 2.592l0.022-0.034c-0.006 0.082-0.011 0.164-0.012 0.245-0.001 0.033-0.001 0.071-0.001 0.109 0 1.552 0.745 2.931 1.897 3.797l0.012 0.009c0.061 0.045 0.1 0.116 0.1 0.197 0 0.021-0.003 0.042-0.008 0.061l0-0.002z"></path>
    </symbol>
    <symbol id="icon-low-price" viewBox="0 0 32 32">
      <path d="M16.522 16.975c0.9-0.22 1.57-1.010 1.57-1.955s-0.67-1.735-1.57-1.955v3.91z"></path>
      <path d="M13.952 9.98c0 0.945 0.67 1.735 1.57 1.955v-3.91c-0.9 0.22-1.57 1.010-1.57 1.955z"></path>
      <path d="M23.022 0.5h-14c-0.275 0-0.5 0.225-0.5 0.5v18c0 0.275-0.225 0.5-0.5 0.5h-3.255c-0.455 0-0.675 0.55-0.35 0.86l11.26 10.81c0.19 0.185 0.5 0.185 0.69 0l11.26-10.81c0.325-0.31 0.105-0.86-0.35-0.86h-3.255c-0.275 0-0.5-0.225-0.5-0.5v-18c0-0.275-0.225-0.5-0.5-0.5zM19.092 15.020c0 1.495-1.115 2.74-2.57 2.975v0.505c0 0.275-0.225 0.5-0.5 0.5s-0.5-0.225-0.5-0.5v-0.505c-1.455-0.235-2.57-1.48-2.57-2.975 0-0.275 0.225-0.5 0.5-0.5s0.5 0.225 0.5 0.5c0 0.945 0.67 1.735 1.57 1.955v-4.020c-1.455-0.235-2.57-1.48-2.57-2.975s1.115-2.74 2.57-2.975v-0.505c0-0.275 0.225-0.5 0.5-0.5s0.5 0.225 0.5 0.5v0.505c1.455 0.235 2.57 1.48 2.57 2.975 0 0.275-0.225 0.5-0.5 0.5s-0.5-0.225-0.5-0.5c0-0.945-0.67-1.735-1.57-1.955v4.020c1.455 0.235 2.57 1.48 2.57 2.975z"></path>
    </symbol>
    <symbol id="icon-reliability" viewBox="0 0 32 32">
      <path d="M26.585 6.34c-3.57-0.715-7.89-3.055-9.585-4.030-0.287-0.167-0.632-0.265-1-0.265s-0.713 0.098-1.010 0.27l0.010-0.005c-1.695 0.975-6.015 3.315-9.585 4.030-0.927 0.194-1.614 1.004-1.615 1.975v5.37c0.109 6.468 3.121 13.136 10.97 16.14 0.366 0.137 0.789 0.215 1.23 0.215s0.864-0.079 1.255-0.224l-0.025 0.008c4.462-1.627 7.942-5.022 9.646-9.315l0.038-0.11c0.813-1.965 1.285-4.246 1.285-6.638 0-0.034-0-0.068-0-0.102l0 0.005v-5.35c-0.001-0.971-0.688-1.781-1.602-1.973l-0.013-0.002zM13.78 20.82c-0.149-0.001-0.283-0.066-0.375-0.169l-0-0.001-3.785-4.36c-0.075-0.087-0.121-0.202-0.121-0.327 0-0.15 0.066-0.285 0.17-0.377l0.001-0c0.088-0.075 0.203-0.121 0.329-0.121 0.151 0 0.287 0.066 0.38 0.17l0 0.001 3.42 3.945 7.84-8.165c0.091-0.095 0.219-0.154 0.36-0.154 0.275 0 0.499 0.223 0.499 0.499 0 0.134-0.053 0.256-0.139 0.345l0-0-8.22 8.56c-0.088 0.095-0.214 0.155-0.353 0.155-0.002 0-0.005-0-0.007-0h0z"></path>
    </symbol>
  </defs>
</svg>